<?xml version="1.0" encoding="utf-8"?>
<!-- Generator: Adobe Illustrator 21.1.0, SVG Export Plug-In . SVG Version: 6.00 Build 0)  -->
<svg version="1.1" id="Layer_1" xmlns="http://www.w3.org/2000/svg" xmlns:xlink="http://www.w3.org/1999/xlink" x="0px" y="0px"
	 viewBox="0 0 174.3 189.4" width="30" height="30" style="enable-background:new 0 0 174.3 189.4;" xml:space="preserve">
<style type="text/css">
	.st0{fill:#6FBC6D;}
</style>
<path class="st0" d="M153.8,34.6c-6.3-3.5-16.3,2.2-22.4,12.7l-11,19.2c-4,8-3.5,17.5,1.6,24.8l0.3,0.5c5.1,7.3,12,14.1,14.2,16.5
	c1.3,1.4,2.3,3.2,2.9,5.2c1.9,6.7-2,13.6-8.7,15.4c-6.7,1.9-13.6-2-15.4-8.7c-0.5-1.7-0.6-3.4-0.4-5c0.4-2.8-0.5-7.2-4.5-11.6
	c-3.9-4.4-12,3.9-14.6,12.4l-0.1,0.4c-2.6,8.5-4.2,16-3.8,16.7c0.3,0.4,0.6,0.9,0.8,1.3c3.7,6.9,1,15.4-5.8,19.1
	c-6.9,3.7-15.4,1-19.1-5.8c-3.7-6.9-1-15.4,5.8-19.1c0.3-0.2,0.6-0.3,0.9-0.5c0.5-0.2,2-3.8,3.3-8.1c1.3-4.2,2.3-7.7,2.3-7.7
	c0.1-0.5,0.3-0.9,0.4-1.3l7-24.9l-7.4,15.3c-0.9-2.9-2.3-3-5.5-0.7c-1.9,1.4-5.1,4.1-6.7,5.2c-2.9,2.1-5.4,6.2-6.7,8.6
	c-0.8,1.5-1.8,2.8-3.2,3.9c-5.3,4.3-13.2,3.5-17.5-1.8c-4.3-5.3-3.5-13.2,1.8-17.5c1.6-1.3,3.3-2.1,5.2-2.5
	C50.9,96,61.5,89.5,67.9,85c1.1-0.8,2.1-1.6,2.9-2.3l17.1-13l-14.9,8.1c0,0-1.5-0.2-3.4,0.1c-5.5,0.6-11.1,1.4-12.1,2.7
	c-0.6,0.8-1.4,1.5-2.2,2.1c-5,3.6-11.9,2.5-15.5-2.5c-3.6-5-2.5-11.9,2.5-15.5c2.1-1.5,4.4-2.2,6.8-2.1c4,0.1,14.5,2.2,23.3,0.7
	l2.3-0.4c8.8-1.6,19.3-9.2,23.5-17.1c0,0,4.1-7.2,9.2-16.1c5.1-8.9,4.7-18.6-0.8-21.8l-10-5.7c-5-2.9-13.3-2.9-18.4,0L9.2,41
	C4.1,43.8,0,50.9,0,56.7v75.9c0,5.8,4.1,12.9,9.2,15.7l68.9,38.9c5.1,2.8,13.3,2.8,18.4,0l68.7-38.8c5.1-2.9,9.2-9.9,9.2-15.7V56.7
	c0-5.8-4.1-12.9-9.2-15.7C165.2,41,160.1,38.1,153.8,34.6z"/>
</svg>
